# xmcd CD database file
#
# Track frame offsets:
#	150
#	21965
#	42452
#	61672
#
# Disc length: 1019 seconds
#
# Revision: 0
# Processed by: cddbd v1.5.1PL2 Copyright (c) Steve Scherf et al.
# Submitted via: CDex 1.51
#
DISCID=2c03f904
DTITLE=So' Fly - READY OR NOT vs ITT[So' Fly ver.]
DYEAR=2005
DGENRE=Hip-Hop
TTITLE0=READY OR NOT vs ITT[So' Fly ver.]
TTITLE1=CASINO NIGHTMARE
TTITLE2=Girlz and Boyz 2
TTITLE3=DANCEHALL FEVER
EXTD=YEAR: 2005.11.2
EXTT0=
EXTT1=
EXTT2=
EXTT3=
PLAYORDER=
